PathFileType	4	(X/Y/Z)	E:/New_biomech_experiments/2 Elbow flexion/Shreyas_pp_27_6_24_t02.trc	
DataRate	CameraRate	NumFrames	NumMarkers	Units	OrigDataRate	OrigDataStartFrame	OrigNumFrames	
120.00	120.00	45	3	m	120.00	4428	5903	
Frame#	Time	r_humerus_epicondyle			r_acromion			r_radius_styloid			
		X1	Y1	Z1	X2	Y2	Z2	X3	Y3	Z3	

4428	36.892	-0.03039	0.46991	0.26805	-0.01110	0.80982	0.21224	0.20704	0.37458	0.28581 
4429	36.900	-0.03035	0.46993	0.26802	-0.01104	0.80984	0.21220	0.20702	0.37442	0.28581 
4430	36.908	-0.03030	0.46996	0.26800	-0.01099	0.80987	0.21217	0.20700	0.37426	0.28582 
4431	36.917	-0.03026	0.46998	0.26798	-0.01093	0.80990	0.21213	0.20698	0.37409	0.28583 
4432	36.925	-0.03022	0.47000	0.26797	-0.01087	0.80992	0.21209	0.20695	0.37391	0.28584 
4433	36.933	-0.03018	0.47002	0.26795	-0.01081	0.80995	0.21206	0.20691	0.37372	0.28586 
4434	36.942	-0.03014	0.47004	0.26793	-0.01074	0.80997	0.21203	0.20688	0.37352	0.28589 
4435	36.950	-0.03010	0.47006	0.26791	-0.01067	0.81000	0.21199	0.20683	0.37330	0.28592 
4436	36.958	-0.03005	0.47008	0.26790	-0.01060	0.81002	0.21196	0.20678	0.37308	0.28595 
4437	36.967	-0.03001	0.47010	0.26789	-0.01052	0.81004	0.21193	0.20673	0.37284	0.28600 
4438	36.975	-0.02997	0.47012	0.26789	-0.01044	0.81006	0.21190	0.20666	0.37259	0.28604 
4439	36.983	-0.02993	0.47014	0.26789	-0.01036	0.81008	0.21187	0.20660	0.37234	0.28609 
4440	36.992	-0.02989	0.47015	0.26789	-0.01028	0.81010	0.21184	0.20652	0.37209	0.28615 
4441	37.000	-0.02986	0.47017	0.26790	-0.01020	0.81011	0.21182	0.20644	0.37183	0.28621 
4442	37.008	-0.02984	0.47019	0.26791	-0.01012	0.81013	0.21179	0.20636	0.37158	0.28629 
4443	37.017	-0.02982	0.47020	0.26792	-0.01004	0.81014	0.21177	0.20627	0.37135	0.28637 
4444	37.025	-0.02981	0.47021	0.26794	-0.00996	0.81015	0.21175	0.20618	0.37113	0.28647 
4445	37.033	-0.02981	0.47022	0.26795	-0.00989	0.81017	0.21173	0.20609	0.37091	0.28658 
4446	37.042	-0.02981	0.47023	0.26796	-0.00982	0.81018	0.21171	0.20599	0.37067	0.28666 
4447	37.050	-0.02982	0.47024	0.26797	-0.00975	0.81019	0.21170	0.20588	0.37041	0.28673 
4448	37.058	-0.02983	0.47025	0.26798	-0.00969	0.81020	0.21169	0.20577	0.37016	0.28681 
4449	37.067	-0.02984	0.47026	0.26799	-0.00963	0.81021	0.21168	0.20566	0.36994	0.28692 
4450	37.075	-0.02986	0.47026	0.26799	-0.00957	0.81022	0.21168	0.20555	0.36974	0.28704 
4451	37.083	-0.02988	0.47026	0.26800	-0.00953	0.81022	0.21168	0.20543	0.36952	0.28715 
4452	37.092	-0.02991	0.47026	0.26800	-0.00949	0.81022	0.21169	0.20530	0.36928	0.28724 
4453	37.100	-0.02994	0.47026	0.26801	-0.00945	0.81022	0.21169	0.20518	0.36900	0.28731 
4454	37.108	-0.02998	0.47025	0.26801	-0.00943	0.81022	0.21170	0.20504	0.36870	0.28736 
4455	37.117	-0.03002	0.47024	0.26801	-0.00942	0.81022	0.21171	0.20490	0.36837	0.28739 
4456	37.125	-0.03006	0.47023	0.26801	-0.00941	0.81021	0.21172	0.20476	0.36804	0.28744 
4457	37.133	-0.03011	0.47022	0.26800	-0.00942	0.81020	0.21173	0.20461	0.36773	0.28749 
4458	37.142	-0.03015	0.47020	0.26800	-0.00943	0.81020	0.21174	0.20447	0.36743	0.28754 
4459	37.150	-0.03020	0.47017	0.26799	-0.00945	0.81019	0.21176	0.20432	0.36714	0.28760 
4460	37.158	-0.03026	0.47015	0.26799	-0.00948	0.81018	0.21177	0.20416	0.36686	0.28767 
4461	37.167	-0.03032	0.47012	0.26798	-0.00952	0.81016	0.21178	0.20401	0.36658	0.28773 
4462	37.175	-0.03038	0.47009	0.26796	-0.00957	0.81015	0.21178	0.20385	0.36631	0.28781 
4463	37.183	-0.03044	0.47006	0.26795	-0.00962	0.81013	0.21179	0.20369	0.36606	0.28788 
4464	37.192	-0.03051	0.47003	0.26793	-0.00968	0.81011	0.21179	0.20352	0.36582	0.28797 
4465	37.200	-0.03059	0.46999	0.26791	-0.00974	0.81009	0.21179	0.20336	0.36560	0.28808 
4466	37.208	-0.03068	0.46995	0.26788	-0.00980	0.81007	0.21179	0.20320	0.36542	0.28819 
4467	37.217	-0.03077	0.46991	0.26786	-0.00986	0.81005	0.21179	0.20304	0.36524	0.28832 
4468	37.225	-0.03086	0.46987	0.26783	-0.00993	0.81003	0.21179	0.20287	0.36506	0.28844 
4469	37.233	-0.03096	0.46983	0.26780	-0.01000	0.81001	0.21179	0.20269	0.36487	0.28855 
4470	37.242	-0.03107	0.46980	0.26778	-0.01006	0.80999	0.21179	0.20252	0.36466	0.28864 
4471	37.250	-0.03117	0.46977	0.26775	-0.01013	0.80997	0.21179	0.20234	0.36445	0.28872 
4472	37.258	-0.03128	0.46974	0.26773	-0.01020	0.80996	0.21179	0.20215	0.36424	0.28879 
